<svg width="256" height="256" viewBox="0 0 256 256" fill="none" xmlns="http://www.w3.org/2000/svg">
<rect width="256" height="256" rx="32" fill="#008959"/>
<path d="M163.248 99.7971L163.952 100.005L164.158 99.2949C164.557 97.974 165.453 96.864 166.654 96.2035C167.855 95.5426 169.264 95.3844 170.579 95.7622C171.894 96.1401 173.01 97.0242 173.687 98.2243C174.364 99.4244 174.548 100.845 174.2 102.18L173.187 105.856L182.555 122.892L186.194 123.94C186.852 124.134 187.465 124.458 187.999 124.891C188.533 125.325 188.977 125.861 189.306 126.468C189.635 127.075 189.843 127.742 189.917 128.43C189.991 129.119 189.93 129.815 189.738 130.479C189.546 131.144 189.225 131.763 188.796 132.303C188.367 132.843 187.836 133.292 187.235 133.624C186.634 133.957 185.974 134.166 185.293 134.241C184.612 134.316 183.922 134.254 183.265 134.06L182.561 133.852L182.355 134.562C182.049 135.666 181.394 136.637 180.489 137.329C179.585 138.02 178.481 138.394 177.346 138.391C176.854 138.384 176.365 138.315 175.891 138.183C175.23 137.995 174.612 137.677 174.074 137.247C173.536 136.816 173.087 136.282 172.754 135.675C172.421 135.069 172.211 134.401 172.136 133.712C172.06 133.022 172.12 132.325 172.314 131.659L173.375 127.983L164.03 110.965L160.392 109.917C159.733 109.726 159.117 109.406 158.58 108.974C158.044 108.543 157.596 108.009 157.264 107.403C156.931 106.797 156.72 106.131 156.643 105.442C156.565 104.754 156.622 104.056 156.812 103.39C157.001 102.724 157.318 102.102 157.745 101.56C158.172 101.018 158.701 100.566 159.3 100.23C159.9 99.8939 160.56 99.6804 161.242 99.602C161.923 99.5237 162.613 99.5816 163.272 99.7725L163.248 99.7971ZM148.798 105.801L148.277 106.327L148.798 106.854C149.291 107.343 149.683 107.926 149.952 108.568C150.221 109.211 150.36 109.901 150.363 110.598C150.367 111.296 150.233 111.987 149.97 112.632C149.707 113.277 149.321 113.864 148.833 114.357C148.344 114.85 147.764 115.24 147.125 115.506C146.487 115.771 145.803 115.906 145.112 115.903C144.422 115.9 143.739 115.759 143.103 115.487C142.467 115.216 141.89 114.82 141.406 114.322L138.811 111.7H119.407L116.812 114.322C115.821 115.257 114.51 115.766 113.155 115.742C111.799 115.717 110.507 115.161 109.55 114.191C108.593 113.222 108.047 111.914 108.027 110.545C108.008 109.175 108.516 107.852 109.444 106.854L109.966 106.327L109.42 105.801C108.495 104.8 107.991 103.475 108.015 102.106C108.039 100.737 108.589 99.4311 109.549 98.4644C110.51 97.4973 111.804 96.9459 113.159 96.9259C114.514 96.906 115.824 97.4195 116.812 98.3574L119.407 100.98H138.708L141.304 98.3574C142.291 97.4195 143.601 96.906 144.956 96.9259C146.311 96.9459 147.606 97.4973 148.566 98.4644C149.526 99.4311 150.076 100.737 150.1 102.106C150.124 103.475 149.62 104.8 148.695 105.801H148.798ZM94.006 99.2764L94.212 100.012L94.9155 99.8033C95.575 99.6123 96.2649 99.5544 96.9467 99.6328C97.628 99.7111 98.2875 99.9241 98.8873 100.26C99.4876 100.596 100.016 101.048 100.443 101.591C100.87 102.133 101.187 102.755 101.377 103.421C101.565 104.087 101.623 104.784 101.545 105.473C101.468 106.161 101.257 106.828 100.924 107.434C100.592 108.04 100.144 108.574 99.6076 109.005C99.0706 109.437 98.4551 109.757 97.7955 109.948L94.1573 110.996L84.7889 128.032L85.8503 131.708C86.2451 133.035 86.1044 134.467 85.4575 135.689C84.8111 136.912 83.7118 137.826 82.3998 138.232C81.9261 138.365 81.4366 138.436 80.9446 138.44C79.8103 138.443 78.7064 138.069 77.8019 137.378C76.8974 136.687 76.2419 135.715 75.9357 134.612L75.7297 133.901L75.0262 134.109C73.6945 134.515 72.258 134.37 71.0321 133.706C69.8062 133.042 68.8915 131.913 68.4897 130.568C68.0873 129.223 68.231 127.772 68.888 126.533C69.5455 125.295 70.6626 124.37 71.9943 123.965L75.6325 122.917L84.9468 105.88L83.8854 102.205C83.6966 101.539 83.6389 100.842 83.7163 100.153C83.7943 99.4643 84.0054 98.7982 84.3379 98.1921C84.6704 97.5859 85.1174 97.0519 85.6544 96.6203C86.1909 96.1892 86.8069 95.8687 87.4659 95.6777C88.7976 95.2917 90.2265 95.4561 91.4382 96.1344C92.65 96.8128 93.5454 97.9494 93.927 99.2949L94.006 99.2764ZM97.1952 85.7991L100.931 82.0259L97.1952 78.2766C96.7028 77.7877 96.3105 77.2056 96.0422 76.5625C95.7734 75.92 95.6332 75.2304 95.6302 74.5326C95.6272 73.8352 95.7608 73.1436 96.0235 72.4985C96.2862 71.8534 96.6729 71.2677 97.1613 70.7741C97.6493 70.2811 98.2293 69.8905 98.8681 69.6247C99.5063 69.3595 100.191 69.2244 100.882 69.2274C101.572 69.231 102.255 69.3723 102.891 69.6437C103.527 69.915 104.104 70.3113 104.587 70.8089L110.451 76.7571H147.719L153.582 70.8089C154.066 70.3113 154.643 69.915 155.279 69.6437C155.915 69.3723 156.598 69.231 157.289 69.2274C157.979 69.2244 158.663 69.3595 159.301 69.6247C159.94 69.8905 160.52 70.2811 161.009 70.7741C161.497 71.2677 161.883 71.8534 162.146 72.4985C162.409 73.1436 162.543 73.8352 162.539 74.5326C162.536 75.2304 162.396 75.92 162.128 76.5625C161.859 77.2056 161.467 77.7877 160.974 78.2766L157.239 82.0259L160.974 85.7991C161.9 86.8 162.404 88.1251 162.379 89.4941C162.355 90.8631 161.805 92.1692 160.845 93.1358C159.885 94.1024 158.59 94.6543 157.235 94.6743C155.88 94.6937 154.57 94.1807 153.582 93.2423L147.719 87.2941H110.451L104.587 93.2423C103.6 94.1807 102.29 94.6937 100.935 94.6743C99.5792 94.6543 98.285 94.1024 97.3248 93.1358C96.3646 92.1692 95.8145 90.8631 95.7902 89.4941C95.7664 88.1251 96.27 86.8 97.1952 85.7991ZM129.079 67.9234C133.379 67.9224 137.582 66.6327 141.157 64.2178C144.732 61.8028 147.517 58.371 149.161 54.356C150.804 50.3416 151.233 45.9248 150.391 41.6646C149.55 37.4039 147.477 33.4914 144.434 30.4216C141.391 27.3518 137.515 25.2629 133.297 24.4187C129.078 23.5744 124.707 24.0132 120.736 25.6791C116.764 27.3456 113.371 30.1641 110.985 33.7791C108.6 37.3937 107.329 41.6421 107.334 45.9862C107.347 51.8033 109.644 57.3777 113.721 61.4858C117.797 65.5945 123.321 67.9009 129.079 67.8989V67.9234ZM129.079 34.5062C131.317 34.501 133.505 35.1671 135.368 36.4194C137.231 37.6722 138.685 39.4549 139.544 41.5417C140.404 43.6291 140.631 45.9273 140.198 48.1452C139.764 50.3626 138.689 52.4008 137.108 54.0012C135.528 55.6012 133.513 56.6922 131.318 57.1351C129.124 57.5774 126.849 57.3526 124.781 56.4889C122.713 55.6247 120.946 54.1605 119.702 52.281C118.458 50.4015 117.794 48.1918 117.794 45.9309C117.791 44.4308 118.08 42.9446 118.646 41.5571C119.211 40.1696 120.042 38.9087 121.089 37.8453C122.137 36.7819 123.382 35.9376 124.753 35.3606C126.124 34.7836 127.594 34.4847 129.079 34.4816V34.5062ZM122.493 195.523V221.288L125.525 225.087C126.018 225.615 126.397 226.241 126.639 226.924C126.882 227.608 126.981 228.335 126.933 229.059C126.884 229.783 126.688 230.49 126.357 231.134C126.026 231.778 125.566 232.346 125.007 232.803C124.449 233.259 123.803 233.594 123.11 233.787C122.417 233.98 121.693 234.026 120.981 233.923C120.27 233.82 119.588 233.569 118.977 233.187C118.366 232.805 117.839 232.3 117.43 231.703L117.273 231.519L117.115 231.703C116.233 232.754 114.98 233.414 113.623 233.544C112.265 233.673 110.912 233.26 109.851 232.395C108.791 231.529 108.107 230.279 107.947 228.911C107.788 227.543 108.164 226.166 108.996 225.074L112.028 221.276V195.523L108.996 191.749C108.164 190.657 107.788 189.281 107.947 187.913C108.107 186.545 108.791 185.294 109.851 184.429C110.912 183.563 112.265 183.151 113.623 183.28C114.98 183.409 116.233 184.07 117.115 185.121L117.273 185.305L117.43 185.121C117.855 184.563 118.385 184.098 118.991 183.751C119.596 183.404 120.264 183.182 120.955 183.1C121.646 183.018 122.347 183.076 123.015 183.27C123.684 183.465 124.307 183.794 124.849 184.236C125.39 184.677 125.838 185.224 126.168 185.844C126.497 186.464 126.7 187.143 126.765 187.843C126.83 188.543 126.757 189.249 126.548 189.92C126.339 190.591 126 191.213 125.55 191.749L122.493 195.523ZM99.4512 209.361C99.4512 210.05 99.317 210.732 99.0559 211.368C98.7952 212.004 98.413 212.582 97.9307 213.069C97.4488 213.556 96.8769 213.943 96.2467 214.206C95.617 214.469 94.9423 214.605 94.2606 214.605H66.1912C61.3665 214.605 56.7398 212.669 53.3283 209.222C49.9168 205.775 48 201.101 48 196.227V69.3631C48.0415 64.5167 49.9765 59.8828 53.3835 56.4705C56.7904 53.0587 61.3939 51.1444 66.1912 51.1444H88.9004C89.5963 51.1203 90.2903 51.2381 90.9402 51.4905C91.5906 51.7434 92.1838 52.1253 92.6849 52.6143C93.1855 53.1032 93.5838 53.6894 93.8561 54.3371C94.1279 54.9847 94.2681 55.6815 94.2681 56.385C94.2681 57.089 94.1279 57.7853 93.8561 58.4334C93.5838 59.0811 93.1855 59.6668 92.6849 60.1562C92.1838 60.6452 91.5906 61.0271 90.9402 61.2795C90.2903 61.5324 89.5963 61.6502 88.9004 61.6261H66.1912C64.1818 61.6246 62.2538 62.4263 60.8275 63.8563C59.4016 65.2868 58.5943 67.2292 58.5812 69.2592V196.411C58.5812 198.448 59.3824 200.402 60.8083 201.843C62.2346 203.284 64.1686 204.093 66.1851 204.093H94.2545C94.9403 204.089 95.6196 204.224 96.2538 204.487C96.888 204.751 97.4645 205.139 97.9489 205.628C98.4338 206.118 98.818 206.701 99.0792 207.341C99.3398 207.982 99.4724 208.669 99.4694 209.361H99.4512ZM160.938 141.975C159.957 142.965 158.628 143.522 157.242 143.522C155.856 143.522 154.526 142.965 153.546 141.975L147.683 135.947H110.451L104.587 141.975C104.109 142.491 103.534 142.906 102.895 143.193C102.255 143.481 101.565 143.635 100.865 143.648C100.165 143.66 99.4704 143.531 98.821 143.267C98.1721 143.002 97.5825 142.609 97.0864 142.11C96.5909 141.611 96.1996 141.016 95.9359 140.361C95.6722 139.706 95.5416 139.004 95.5518 138.297C95.5619 137.591 95.7127 136.893 95.9951 136.246C96.2776 135.599 96.6855 135.016 97.1952 134.532L100.931 130.758L97.1952 127.009C96.23 126.015 95.6925 124.677 95.6985 123.285C95.7051 121.894 96.2553 120.56 97.2297 119.576C98.204 118.591 99.5236 118.036 100.901 118.029C102.279 118.022 103.604 118.566 104.587 119.542L110.451 125.49H147.719L153.582 119.542C154.582 118.702 155.856 118.268 157.154 118.326C158.453 118.384 159.684 118.929 160.607 119.854C161.53 120.779 162.078 122.018 162.145 123.33C162.211 124.642 161.792 125.932 160.968 126.948L157.233 130.697L160.968 134.471C161.454 134.958 161.84 135.538 162.103 136.177C162.366 136.815 162.502 137.5 162.502 138.192C162.502 138.884 162.366 139.569 162.103 140.207C161.84 140.846 161.454 141.426 160.968 141.913L160.938 141.975ZM210 69.3631V196.411C210 201.285 208.083 205.959 204.672 209.406C201.26 212.853 196.633 214.789 191.809 214.789H163.897C163.201 214.813 162.507 214.695 161.857 214.443C161.207 214.19 160.613 213.808 160.113 213.319C159.612 212.83 159.213 212.244 158.941 211.596C158.669 210.948 158.529 210.252 158.529 209.548C158.529 208.844 158.669 208.148 158.941 207.5C159.213 206.852 159.612 206.266 160.113 205.777C160.613 205.288 161.207 204.906 161.857 204.654C162.507 204.401 163.201 204.283 163.897 204.307H191.984C194.001 204.307 195.935 203.498 197.361 202.057C198.787 200.617 199.588 198.663 199.588 196.625V69.3631C199.587 67.327 198.785 65.3743 197.359 63.9351C195.933 62.496 194 61.687 191.984 61.687H169.27C168.573 61.7111 167.88 61.5933 167.229 61.3409C166.579 61.0885 165.986 60.7061 165.485 60.2172C164.984 59.7282 164.586 59.1425 164.314 58.4943C164.042 57.8467 163.901 57.1504 163.901 56.4464C163.901 55.743 164.042 55.0462 164.314 54.3985C164.586 53.7504 164.984 53.1647 165.485 52.6757C165.986 52.1868 166.579 51.8043 167.229 51.5519C167.88 51.2995 168.573 51.1818 169.27 51.2058H191.984C196.741 51.2519 201.291 53.1785 204.658 56.5724C208.025 59.9663 209.943 64.5577 210 69.3631ZM135.67 166.155V155.63L133.778 154.343C133.209 153.958 132.721 153.463 132.341 152.887C131.962 152.311 131.698 151.666 131.565 150.987C131.433 150.307 131.434 149.609 131.569 148.931C131.703 148.252 131.969 147.607 132.35 147.032C132.732 146.457 133.221 145.964 133.792 145.58C134.362 145.197 135.001 144.93 135.673 144.796C136.345 144.662 137.037 144.663 137.708 144.799C138.38 144.936 139.018 145.204 139.587 145.589L140.885 146.478L142.183 145.589C142.752 145.204 143.39 144.936 144.062 144.799C144.733 144.663 145.425 144.662 146.097 144.796C146.769 144.93 147.408 145.197 147.978 145.58C148.549 145.964 149.038 146.457 149.42 147.032C149.801 147.607 150.067 148.252 150.201 148.931C150.336 149.609 150.337 150.307 150.205 150.987C150.072 151.666 149.809 152.311 149.428 152.887C149.049 153.463 148.561 153.958 147.992 154.343L146.1 155.63V166.112L147.992 167.398C149.141 168.176 149.937 169.384 150.205 170.755C150.473 172.126 150.19 173.548 149.42 174.709C148.649 175.87 147.454 176.674 146.097 176.945C144.74 177.215 143.332 176.93 142.183 176.152L140.885 175.264L139.587 176.152C139.017 176.538 138.378 176.806 137.704 176.942C137.032 177.078 136.339 177.079 135.666 176.944C134.992 176.81 134.352 176.543 133.781 176.158C133.21 175.774 132.72 175.279 132.338 174.703C131.956 174.127 131.691 173.481 131.556 172.801C131.421 172.121 131.42 171.421 131.554 170.741C131.687 170.061 131.951 169.414 132.332 168.837C132.713 168.261 133.202 167.765 133.772 167.38L135.67 166.155ZM146.045 195.559V221.288L149.077 225.087C149.575 225.614 149.959 226.24 150.205 226.925C150.451 227.609 150.555 228.338 150.508 229.065C150.461 229.792 150.267 230.502 149.935 231.149C149.604 231.796 149.143 232.367 148.583 232.825C148.022 233.283 147.374 233.62 146.678 233.812C145.983 234.005 145.256 234.05 144.542 233.944C143.829 233.839 143.145 233.586 142.533 233.2C141.921 232.814 141.395 232.304 140.988 231.703L140.83 231.519L140.673 231.703C140.258 232.284 139.729 232.774 139.121 233.142C138.513 233.51 137.836 233.749 137.133 233.844C136.43 233.939 135.715 233.889 135.032 233.696C134.349 233.503 133.712 233.171 133.16 232.721C132.608 232.27 132.152 231.711 131.821 231.077C131.49 230.444 131.291 229.748 131.235 229.034C131.178 228.32 131.267 227.601 131.495 226.923C131.723 226.244 132.085 225.619 132.559 225.087L135.591 221.288V195.523L132.559 191.749C131.728 190.657 131.352 189.281 131.512 187.913C131.671 186.545 132.354 185.294 133.415 184.429C134.475 183.563 135.829 183.151 137.187 183.28C138.544 183.409 139.797 184.07 140.679 185.121L140.836 185.305L140.994 185.121C141.419 184.563 141.949 184.098 142.554 183.751C143.16 183.404 143.828 183.182 144.519 183.1C145.21 183.018 145.911 183.076 146.579 183.27C147.248 183.465 147.871 183.794 148.413 184.236C148.954 184.677 149.402 185.224 149.731 185.844C150.06 186.464 150.264 187.143 150.329 187.843C150.394 188.543 150.32 189.249 150.112 189.92C149.903 190.591 149.564 191.213 149.114 191.749L146.045 195.559ZM112.088 166.155V155.63L110.196 154.343C109.053 153.547 108.271 152.325 108.02 150.946C107.769 149.567 108.071 148.144 108.859 146.989C109.647 145.835 110.857 145.044 112.222 144.791C113.587 144.537 114.996 144.842 116.139 145.638L117.4 146.551L118.698 145.663C119.847 144.884 121.255 144.599 122.612 144.87C123.969 145.14 125.164 145.945 125.935 147.105C126.705 148.267 126.988 149.689 126.72 151.06C126.452 152.431 125.656 153.639 124.507 154.417L122.615 155.704V166.155L124.507 167.441C125.099 167.814 125.61 168.304 126.01 168.882C126.411 169.459 126.691 170.112 126.837 170.802C126.982 171.491 126.988 172.204 126.855 172.895C126.722 173.587 126.452 174.245 126.062 174.829C125.672 175.414 125.168 175.913 124.583 176.297C123.998 176.681 123.342 176.942 122.655 177.064C121.967 177.186 121.263 177.167 120.583 177.008C119.903 176.85 119.262 176.554 118.698 176.14L117.4 175.251L116.102 176.14C114.953 176.918 113.545 177.203 112.188 176.933C110.831 176.662 109.636 175.858 108.865 174.697C108.095 173.536 107.812 172.114 108.081 170.742C108.348 169.371 109.144 168.164 110.293 167.386L112.088 166.155Z" fill="white"/>
</svg>
